<svg rx="0" xmlns="http://www.w3.org/2000/svg" viewBox="0 0 72 72">
<path fill="currentColor" stroke="none" stroke-linecap="round" stroke-linejoin="round" stroke-miterlimit="10" stroke-width="2" d="M33.7701,47.4133l16.436,13.128l-0.001-49.166l-16.435,13.346" opacity="0.2"/>
<line x1="33.7149" x2="33.7149" y1="24.8011" y2="46.0511" fill="currentColor" stroke="none" stroke-linecap="round" stroke-linejoin="round" stroke-miterlimit="10" stroke-width="2" opacity="0.2"/>
<path fill="currentColor" stroke="none" stroke-miterlimit="10" stroke-width="1.9381" d="M32.7926,24.7213H20.8553 c-1.554,0.005-2.8125,1.3452-2.8172,3v16.692c0.0047,1.6548,1.2632,2.995,2.8172,3h11.9373" opacity="0.2"/>
<path fill="none" stroke="currentColor" stroke-linecap="round" stroke-linejoin="round" stroke-width="2" d="M50.2195,45.4881 l-0.0007-34.1129l-16.435,13.346h-4.1277"/>
<path fill="none" stroke="currentColor" stroke-linecap="round" stroke-linejoin="round" stroke-width="2" d="M20.2294,24.8434 c-1.2445,0.3664-2.1535,1.5155-2.1576,2.8778v16.692c0.005,1.6548,1.3452,2.995,3,3h12.712l16.436,13.128l-0.0001-5.659"/>
<line x1="33.7838" x2="33.7838" y1="25.3332" y2="29" fill="none" stroke="currentColor" stroke-linecap="round" stroke-linejoin="round" stroke-width="2"/>
<line x1="33.7838" x2="33.7838" y1="39" y2="47.051" fill="none" stroke="currentColor" stroke-linecap="round" stroke-linejoin="round" stroke-width="2"/>
<line x1="11.6048" x2="60.1048" y1="11.7825" y2="60.2825" fill="none" stroke="currentColor" stroke-linecap="round" stroke-linejoin="round" stroke-width="2"/>
<style>svg{color:#87ceeb}path[opacity],circle[opacity],rect[opacity],ellipse[opacity],polygon[opacity],polyline[opacity],line[opacity]{fill:#ffffff}</style></svg>