<?xml version="1.0" encoding="UTF-8"?>
<svg xmlns="http://www.w3.org/2000/svg" viewBox="0 0 200 240" width="100%" height="100%">
        <!-- Neck -->
        <path d="M82,145 L82,185 C90,195 110,195 118,185 L118,145 Z" fill="#aa7649"/>
        <path d="M82,145 L82,165 C90,175 110,175 118,165 L118,145 Z" fill="#8c582b" opacity="0.5"/>
        <!-- Shoulders / Base Torso -->
        <path d="M30,240 C35,190 60,170 82,170 L118,170 C140,170 165,190 170,240 Z" fill="#aa7649"/>
    <path d="M20,240 L30,165 C60,150 140,150 170,165 L180,240 Z" fill="#241830" opacity="0.9"/>
                <path d="M50,240 L60,165 L100,210 L140,165 L150,240 Z" fill="#e6e6e6" />
                <path d="M30,240 L40,180 L80,210 L30,240 Z" fill="#2c1f38" />
                <path d="M170,240 L160,180 L120,210 L170,240 Z" fill="#2c1f38" />
                <path d="M70,240 L80,180 L120,180 L130,240 Z" fill="#375273" opacity="0.6"/>
            <g transform="translate(100,100) scale(0.95) translate(-100,-100)"><g transform="translate(48,95) scale(0.95) translate(-48,-95)"><path d="M48,96 C42,90 24,94 24,108 C24,120 34,126 46,122 C48,118 50,110 48,96 Z" fill="#aa7649"/></g><g transform="translate(152,95) scale(0.95) translate(-152,-95)"><path d="M152,96 C158,90 176,94 176,108 C176,120 166,126 154,122 C152,118 150,110 152,96 Z" fill="#aa7649"/></g></g><g transform="translate(100,100) scale(0.95) translate(-100,-100)"><g transform="translate(100,30) scale(0.95) translate(-100,-30)"></g></g><g transform="translate(100,100) scale(0.95) translate(-100,-100)"><path d="M100,25 C132,25 152,52 152,92 C152,128 142,152 128,166 C117,176 108,180 100,180 C92,180 83,176 72,166 C58,152 48,128 48,92 C48,52 68,25 100,25 Z" fill="#aa7649"/></g><g transform="translate(100,100) scale(0.95) translate(-100,-100)">
                <path d="M86,163 L114,163 C114,174 108,183 100,185 C92,183 86,174 86,163 Z" fill="#aa7649"/>
                <path d="M90,178 C94,181 106,181 110,178 C106,180.5 94,180.5 90,178 Z" fill="#8e5a2d" opacity="0.2"/>
            </g><g transform="translate(100,100) scale(0.95) translate(-100,-100)"><path d="M69,129 C61,144 62,162 73,176 C82,186 91,190 100,190 C109,190 118,186 127,176 C138,162 139,144 131,129 C127,146 118,156 100,158 C82,156 73,146 69,129 Z" fill="#c9c2b5"/></g><path d="M78,140 C85,152 115,152 122,140 C115,148 85,148 78,140 Z" fill="#8f5245"/><g transform="translate(100,110) scale(1.05) translate(-100,-110)"><path d="M97,94 C94,104 89,113 87,119 C86,124 90,127 96,128 L104,128 C110,127 114,124 113,119 C111,113 106,104 103,94 Z" fill="#8e5a2d" opacity="0.32"/>
        <ellipse cx="94.5" cy="122" rx="2" ry="1.4" fill="#8e5a2d" opacity="0.85"/>
        <ellipse cx="105.5" cy="122" rx="2" ry="1.4" fill="#8e5a2d" opacity="0.85"/>
    </g><path d="M64,78 C70,68 84,67 90,76 C84,71 70,72 64,78 Z" fill="#c9c2b5"/><g transform="translate(200,0) scale(-1,1)"><path d="M64,78 C70,68 84,67 90,76 C84,71 70,72 64,78 Z" fill="#c9c2b5"/></g><path d="M64,92 C69,85 85,85 90,92 C85,99 69,99 64,92 Z" fill="#fdfaf1"/><circle cx="77" cy="93" r="5" fill="#573f2c"/><circle cx="77" cy="93" r="2" fill="#1a1410"/><circle cx="78.4" cy="91.6" r="1.1" fill="#ffffff"/><path d="M61,85 C68,80 86,80 93,86 C86,84 70,84 61,85 Z" fill="#8c582b"/><g transform="translate(200,0) scale(-1,1)"><path d="M64,92 C69,85 85,85 90,92 C85,99 69,99 64,92 Z" fill="#fdfaf1"/><circle cx="77" cy="93" r="5" fill="#573f2c"/><circle cx="77" cy="93" r="2" fill="#1a1410"/><circle cx="78.4" cy="91.6" r="1.1" fill="#ffffff"/><path d="M61,85 C68,80 86,80 93,86 C86,84 70,84 61,85 Z" fill="#8c582b"/></g><g transform="translate(100,100) scale(0.95) translate(-100,-100)"><g transform="translate(100,30) scale(0.95) translate(-100,-30)"><path d="M100,22 C138,22 156,48 154,85 C154,70 148,58 140,52 C142,60 140,66 136,68 C132,50 112,38 100,38 C88,38 68,50 64,68 C60,66 58,60 60,52 C52,58 46,70 46,85 C44,48 62,22 100,22 Z" fill="#c9c2b5"/></g></g><g transform="translate(100,100) scale(0.95) translate(-100,-100)"><g transform="translate(100,30) scale(0.91) translate(-100,-30)"><path d="M72,32 C72,18 84,10 100,10 C116,10 128,18 128,32 C128,36 125,38 121,37 C121,26 112,20 100,20 C88,20 79,26 79,37 C75,38 72,36 72,32 Z" fill="#2c1f38"/></g></g></svg>